<svg width="200" height="200" viewBox="0 0 200 200" fill="none" xmlns="http://www.w3.org/2000/svg">
  <!-- Croissant Base -->
  <path d="M60 100 Q80 80 100 100 Q120 80 140 100 Q120 120 100 100 Q80 120 60 100 Z" fill="#DEB887" stroke="#CD853F" stroke-width="2"/>
  
  <!-- Croissant Layers -->
  <path d="M65 95 Q80 78 100 95 Q120 78 135 95 Q120 112 100 95 Q80 112 65 95 Z" fill="#F4A460" opacity="0.8"/>
  <path d="M70 90 Q80 76 100 90 Q120 76 130 90 Q120 104 100 90 Q80 104 70 90 Z" fill="#D2691E" opacity="0.6"/>
  
  <!-- Almonds -->
  <ellipse cx="85" cy="95" rx="3" ry="5" fill="#F5DEB3" transform="rotate(45 85 95)"/>
  <ellipse cx="115" cy="95" rx="3" ry="5" fill="#F5DEB3" transform="rotate(-45 115 95)"/>
  <ellipse cx="100" cy="88" rx="2" ry="4" fill="#F5DEB3" transform="rotate(30 100 88)"/>
  <ellipse cx="100" cy="102" rx="2" ry="4" fill="#F5DEB3" transform="rotate(-30 100 102)"/>
  
  <!-- Texture Lines -->
  <path d="M70 90 Q80 85 90 90" fill="none" stroke="#CD853F" stroke-width="1" opacity="0.6"/>
  <path d="M110 90 Q120 85 130 90" fill="none" stroke="#CD853F" stroke-width="1" opacity="0.6"/>
  <path d="M80 95 Q90 90 100 95" fill="none" stroke="#CD853F" stroke-width="1" opacity="0.6"/>
  <path d="M100 95 Q110 90 120 95" fill="none" stroke="#CD853F" stroke-width="1" opacity="0.6"/>
  
  <!-- Plate -->
  <ellipse cx="100" cy="170" rx="90" ry="20" fill="#F5F5DC" stroke="#D2B48C" stroke-width="2"/>
  
  <!-- Fork -->
  <rect x="170" y="90" width="3" height="50" rx="1" fill="#C0C0C0"/>
  <rect x="168" y="90" width="7" height="3" rx="1" fill="#C0C0C0"/>
  <rect x="168" y="95" width="7" height="3" rx="1" fill="#C0C0C0"/>
  <rect x="168" y="100" width="7" height="3" rx="1" fill="#C0C0C0"/>
  
  <!-- Powdered Sugar -->
  <circle cx="75" cy="85" r="1" fill="#FFFFFF" opacity="0.8"/>
  <circle cx="125" cy="85" r="1" fill="#FFFFFF" opacity="0.8"/>
  <circle cx="100" cy="80" r="1" fill="#FFFFFF" opacity="0.8"/>
</svg>
