<svg width="200" height="200" viewBox="0 0 200 200" fill="none" xmlns="http://www.w3.org/2000/svg">
  <!-- Cookie 1 -->
  <circle cx="80" cy="80" r="25" fill="#DEB887" stroke="#CD853F" stroke-width="2"/>
  
  <!-- Cookie 2 -->
  <circle cx="120" cy="80" r="25" fill="#DEB887" stroke="#CD853F" stroke-width="2"/>
  
  <!-- Cookie 3 -->
  <circle cx="100" cy="120" r="25" fill="#DEB887" stroke="#CD853F" stroke-width="2"/>
  
  <!-- Chocolate Chips in Cookie 1 -->
  <circle cx="75" cy="75" r="3" fill="#3E2723"/>
  <circle cx="85" cy="70" r="2" fill="#3E2723"/>
  <circle cx="90" cy="80" r="2" fill="#3E2723"/>
  <circle cx="70" cy="85" r="2" fill="#3E2723"/>
  
  <!-- Chocolate Chips in Cookie 2 -->
  <circle cx="115" cy="75" r="3" fill="#3E2723"/>
  <circle cx="125" cy="70" r="2" fill="#3E2723"/>
  <circle cx="130" cy="80" r="2" fill="#3E2723"/>
  <circle cx="110" cy="85" r="2" fill="#3E2723"/>
  
  <!-- Chocolate Chips in Cookie 3 -->
  <circle cx="95" cy="115" r="3" fill="#3E2723"/>
  <circle cx="105" cy="110" r="2" fill="#3E2723"/>
  <circle cx="110" cy="120" r="2" fill="#3E2723"/>
  <circle cx="90" cy="125" r="2" fill="#3E2723"/>
  
  <!-- Cookie Texture -->
  <circle cx="80" cy="80" r="20" fill="none" stroke="#CD853F" stroke-width="1" opacity="0.6"/>
  <circle cx="120" cy="80" r="20" fill="none" stroke="#CD853F" stroke-width="1" opacity="0.6"/>
  <circle cx="100" cy="120" r="20" fill="none" stroke="#CD853F" stroke-width="1" opacity="0.6"/>
  
  <!-- Plate -->
  <ellipse cx="100" cy="170" rx="90" ry="20" fill="#F5F5DC" stroke="#D2B48C" stroke-width="2"/>
  
  <!-- Milk Glass -->
  <rect x="170" y="60" width="20" height="30" rx="10" fill="#F0F8FF" stroke="#87CEEB" stroke-width="1"/>
  <ellipse cx="180" cy="60" rx="10" ry="5" fill="#F0F8FF" stroke="#87CEEB" stroke-width="1"/>
  
  <!-- Cookie Crumbs -->
  <circle cx="60" cy="60" r="1" fill="#DEB887"/>
  <circle cx="140" cy="60" r="1" fill="#DEB887"/>
  <circle cx="60" cy="140" r="1" fill="#DEB887"/>
  <circle cx="140" cy="140" r="1" fill="#DEB887"/>
</svg>
