<svg width="100" height="100" viewBox="0 0 100 100" fill="none" xmlns="http://www.w3.org/2000/svg">
  <rect width="100" height="100" rx="8" fill="#F3F4F6"/>
  <path d="M50 25C35.536 25 24 36.536 24 51C24 65.464 35.536 77 50 77C64.464 77 76 65.464 76 51C76 36.536 64.464 25 50 25ZM50 71C38.954 71 30 62.046 30 51C30 39.954 38.954 31 50 31C61.046 31 70 39.954 70 51C70 62.046 61.046 71 50 71Z" fill="#9CA3AF"/>
  <path d="M50 35C41.716 35 35 41.716 35 50C35 58.284 41.716 65 50 65C58.284 65 65 58.284 65 50C65 41.716 58.284 35 50 35ZM50 59C44.477 59 40 54.523 40 49C40 43.477 44.477 39 50 39C55.523 39 60 43.477 60 49C60 54.523 55.523 59 50 59Z" fill="#9CA3AF"/>
  <circle cx="50" cy="49" r="3" fill="#9CA3AF"/>
</svg>
