<svg width="200" height="200" viewBox="0 0 200 200" fill="none" xmlns="http://www.w3.org/2000/svg">
  <!-- Cup -->
  <path d="M40 60 L40 140 Q40 160 60 160 L140 160 Q160 160 160 140 L160 60 Z" fill="#8B4513" stroke="#654321" stroke-width="2"/>
  
  <!-- Cup Handle -->
  <path d="M160 80 Q180 80 180 100 Q180 120 160 120" fill="none" stroke="#654321" stroke-width="3" stroke-linecap="round"/>
  
  <!-- Steam -->
  <path d="M70 40 Q75 35 80 40 Q85 35 90 40" fill="none" stroke="#D3D3D3" stroke-width="2" stroke-linecap="round"/>
  <path d="M100 40 Q105 35 110 40 Q115 35 120 40" fill="none" stroke="#D3D3D3" stroke-width="2" stroke-linecap="round"/>
  <path d="M130 40 Q135 35 140 40 Q145 35 150 40" fill="none" stroke="#D3D3D3" stroke-width="2" stroke-linecap="round"/>
  
  <!-- Coffee -->
  <path d="M45 65 L155 65 L155 135 Q155 150 140 150 L60 150 Q45 150 45 135 Z" fill="#4A2C2A"/>
  
  <!-- Coffee Surface -->
  <ellipse cx="100" cy="70" rx="50" ry="8" fill="#6F4E37"/>
  
  <!-- Coffee Bean -->
  <ellipse cx="85" cy="75" rx="3" ry="5" fill="#3E2723" transform="rotate(45 85 75)"/>
  <ellipse cx="115" cy="80" rx="2" ry="4" fill="#3E2723" transform="rotate(-30 115 80)"/>
  
  <!-- Saucer -->
  <ellipse cx="100" cy="170" rx="80" ry="15" fill="#F5F5DC" stroke="#D2B48C" stroke-width="2"/>
  
  <!-- Spoon -->
  <rect x="170" y="70" width="4" height="60" rx="2" fill="#C0C0C0"/>
  <ellipse cx="172" cy="130" rx="8" ry="4" fill="#C0C0C0"/>
</svg>
